<svg xmlns="http://www.w3.org/2000/svg" viewBox="0 0 200.79 199.67"><defs><style>.cls-1{fill:#f3f3f3;}.cls-2{fill:#757575;}.cls-3{fill:#01b2d1;}.cls-4{fill:#414141;}</style></defs><title>ccjmap</title><g id="map_color" data-name="map color"><path class="cls-1" d="M189.17,10a15.49,15.49,0,0,0-19.36,6.34l-.33.54-.36.08-.43-.25c-6.42-3.39-13.37-2.27-18.78,2.42-.58.52-1.19,1-1.79,1.51a4.14,4.14,0,0,0-.64.44c-1.53,1-3.1,1.94-4.71,2.83a6.19,6.19,0,0,0-.91.57,8.55,8.55,0,0,0-1.15.22c-.05,0-3.45.66-2.8.66-6.57.5-13-2.07-20.36-4-8-2.12-16-4-24-6L82.08,12.61a87.09,87.09,0,0,0-10.4-2.32,14.72,14.72,0,0,0-11.19.42A4.74,4.74,0,0,0,55.94,12l-.75.71a5.2,5.2,0,0,0-4,1.12l-.52.41a4.91,4.91,0,0,0-4.79.6c-1.81-1.74-4.57-2.26-6.53.24q-1.27,1.62-2.6,3.16a4.63,4.63,0,0,0-4.59.81A3.94,3.94,0,0,0,27,20.27l-2.3,2.92a5.57,5.57,0,0,0-1.3-.13,4.43,4.43,0,0,0-5.37,1l-.35.39a5.45,5.45,0,0,0-7.47,1.32L8.94,27.63l-.1.09A11.9,11.9,0,0,0,7,30.45l-.07.1H7c-.18.37-.35.76-.52,1.19a4.88,4.88,0,0,0-.36,1.67L4.44,37.35C3,40.74,5.93,43.26,9,43.46,10.8,65.8,6.89,87.91,4.9,110.11a320.61,320.61,0,0,0-1.27,32.58q.11,8.62.69,17.23c.16,2.4.42,4.79.56,7.18,0,.18,0,1.15.06,1.92a15.66,15.66,0,0,0,1.71,19.72c6.39,6.39,15.44,5.34,21.92,0-1.63,1.34-.13.36.94-.32.28,0,2.73-1.08,3.24-1.23,2.89-.85,5.84-1.47,8.76-2.2,7.45-1.86,14.15-5.2,21-8.64a30.76,30.76,0,0,0,2.87-1.4q.6-.23,1.22-.41c.84.29,2.23.7,2.29.73,1.67.62,3.32,1.31,5,2Q84.75,181.4,96,184.59t22.78,5.36c8,1.52,17.2,4,25.34,2,7.28-1.8,14-6.43,20.85-9.41a192.84,192.84,0,0,1,20.91-7.35c6-1.76,12-8.2,11.38-14.95-2.19-22.14-1.88-44.62-2.12-66.85-.23-21.53,0-44.79,3-65.14C199.27,20.52,196.88,13.23,189.17,10Z"/></g><g id="map"><path class="cls-2" d="M198.78.88a4.76,4.76,0,0,0-4.32-.61L132.27,22.09,70.09.27c-.15-.05-.3-.06-.45-.1A4.77,4.77,0,0,0,69.07,0,13.54,13.54,0,0,0,68,0a4.79,4.79,0,0,0-.56.12,4.58,4.58,0,0,0-.45.1L3.18,22.64A4.75,4.75,0,0,0,0,27.13V194.91a4.76,4.76,0,0,0,6.33,4.49l62.19-21.82L130.7,199.4l.07,0a4.6,4.6,0,0,0,.5.13l.24.06a4.55,4.55,0,0,0,1.52,0l.24-.06a4.57,4.57,0,0,0,.5-.13l.07,0L197.61,177a4.75,4.75,0,0,0,3.18-4.49V4.75A4.75,4.75,0,0,0,198.78.88ZM9.51,30.5l54.25-19V169.17l-54.25,19Zm63.76-19,54.25,19V188.21l-54.25-19Zm118,157.71-54.25,19V30.5l54.25-19Z"/></g><g id="pin_color" data-name="pin color"><path class="cls-3" d="M187.88,90.07c-8.33-9.85-19.48-16.33-32.35-17.74a4.44,4.44,0,0,0-3.44,1.24A4.93,4.93,0,0,0,147.59,75c-.38.4-.75.81-1.11,1.22-.24.16-.48.33-.71.5A7.08,7.08,0,0,0,141.44,78h0a13.64,13.64,0,0,0-1.67,1,4.4,4.4,0,0,0-1.85-.19h0l-.14,0-.25,0c-2.78.35-5,1.48-6.19,3.8a9.06,9.06,0,0,0-2.25,2,6.39,6.39,0,0,0-.95,1.59,5.81,5.81,0,0,0-3.29,1.23,27.88,27.88,0,0,0-7,8.55,53,53,0,0,0-7.83,13.73,4.38,4.38,0,0,0,1.53,5.45c-.1.19-.21.37-.31.57a6.26,6.26,0,0,0,.58,6,6.72,6.72,0,0,0-.57,8.05,7.19,7.19,0,0,0,1.84,2.14,4.66,4.66,0,0,0,.68.61c0,.11,0,.21,0,.32-.2,2.6,2.3,5.25,4.94,5.56a9.8,9.8,0,0,0,.39,4.26,16.89,16.89,0,0,0,1.2,3.73,4.87,4.87,0,0,0,3.6,2.56,7,7,0,0,0,.27.83,6.74,6.74,0,0,0,.84,2.43,9.64,9.64,0,0,0,.93,3.41,4.56,4.56,0,0,0,1.95,2,118.15,118.15,0,0,0,7.56,12.51q6.81,11.11,14.13,21.89c2,3,7.75,4.12,9.5,0,5.25-12.35,14.18-23.11,21.08-34.57,6.77-11.24,14.66-23.34,18.78-35.87C202.73,109.79,195.34,98.89,187.88,90.07ZM130.24,122.7a11.3,11.3,0,0,0,.21-1.59,4.85,4.85,0,0,0-1.43-3.7,5.42,5.42,0,0,0-.55-1.38,74.17,74.17,0,0,0,6.15-8.32,60.84,60.84,0,0,0,4.43-6.57,5.76,5.76,0,0,0,.84-3l.22-.14a6,6,0,0,0,.8-.41c1.41-.87,2.82-1.72,4.23-2.56a5,5,0,0,0,3.66-.61l.54-.36c1.24,2,3.49,3.42,6,2.4a27.79,27.79,0,0,0,4.36-2.25c2.6,3.91,6.33,7.24,10.37,7.41a4.79,4.79,0,0,0,4.34,2c1.54-.06,2.27,5.9,2.39,6.79a37.1,37.1,0,0,1-.48,12.56,5.78,5.78,0,0,0,.26,3.28,5.47,5.47,0,0,0-.39.53,4.65,4.65,0,0,0-5.28,1.46,139.82,139.82,0,0,1-15.16,14.61,5.35,5.35,0,0,0-1.88,0,5.58,5.58,0,0,0-5.76-1.6v0c-.56-2.95-3.94-4.42-6.72-3.85-1-2.5-3.67-3.24-6-2.65a5.77,5.77,0,0,0-1.36-1.08,8.76,8.76,0,0,0-2.47-5.81,4.64,4.64,0,0,0-.89-.71A7.49,7.49,0,0,0,130.24,122.7Z"/></g><g id="pin"><path class="cls-4" d="M154,143.63A25.63,25.63,0,1,1,179.6,118,25.66,25.66,0,0,1,154,143.63Zm0-45.13a19.5,19.5,0,1,0,19.5,19.5A19.53,19.53,0,0,0,154,98.5Z"/><path class="cls-4" d="M154,199.67a3.06,3.06,0,0,1-2.39-1.15c-1.81-2.26-44.43-55.72-44.43-80.67a46.82,46.82,0,1,1,93.63,0c0,25-42.61,78.41-44.43,80.67A3.06,3.06,0,0,1,154,199.67Zm0-122.51a40.74,40.74,0,0,0-40.69,40.69c0,19.66,31.64,62.06,40.69,73.78,9.05-11.73,40.69-54.13,40.69-73.78A40.74,40.74,0,0,0,154,77.16Z"/></g></svg>