<svg xmlns="http://www.w3.org/2000/svg" viewBox="0 0 255.27 226.88"><defs><style>.cls-1{fill:#f3f3f3;}.cls-2,.cls-5{fill:#b3b3b3;}.cls-3{fill:#01b2d1;}.cls-4{fill:#414141;}.cls-5{stroke:#01b2d1;stroke-linecap:round;stroke-miterlimit:10;stroke-width:5px;}</style></defs><title>ccjlisten</title><g id="mic_bg_upper" data-name="mic bg upper"><path class="cls-1" d="M160.64,112.4a4.09,4.09,0,0,0-1.38-2.48,28.08,28.08,0,0,0-.71-6.58,8.19,8.19,0,0,0,1-2.49c.64-2.73-.41-5.41-.08-8s.86-4.32-.12-7c-1.51-4.09-2.67-9.06-5.81-12.25a12,12,0,0,0-2.65-2c-1.12-2.73-2.71-5.24-5.44-6.67-4.13-2.17-10.13-2-14.69-2.24-9.53-.55-20,.05-25.31,9.09a6.07,6.07,0,0,0-.54,1.19c-.2.08-.41.14-.61.22-5.67,2.38-7.36,6.85-8.24,12.6A91.21,91.21,0,0,0,95,104.86a5.57,5.57,0,0,0,2.88,4.48,14.4,14.4,0,0,0-.63,4.52l-.36,2a5.68,5.68,0,0,0,4.63,6.75,6.15,6.15,0,0,0,3,.49,6.52,6.52,0,0,0,.7.22,6.27,6.27,0,0,0,.65.11,5.71,5.71,0,0,0,4.77,1.71,6.89,6.89,0,0,0,4.11-1.68A7.28,7.28,0,0,0,118,122c.15,0,.3.06.46.07a8.12,8.12,0,0,0,1.17,0c.06.16.13.32.2.47,1.33,2.91,5,3.07,7.53,2a12.93,12.93,0,0,0,3.82-2.68l.24-.07a7.34,7.34,0,0,0,4.17,1.45l.09,0a7.35,7.35,0,0,0,5.73.27,9.08,9.08,0,0,0,3.22.17l.08.05a8.12,8.12,0,0,0,8.17-.09,6.3,6.3,0,0,0,5.3-1.54C161,119.61,161.19,115.89,160.64,112.4Z"/><path class="cls-2" d="M155.18,125a285.18,285.18,0,0,0-41,3.6,5.22,5.22,0,0,0-2.25-1.69,6.46,6.46,0,0,0-2.83-1.22,5.76,5.76,0,0,0-6.39-.82,6,6,0,0,0-2.62,2.2,5.39,5.39,0,0,0-1.56,6.6c-.09.14-.17.29-.26.47a4.45,4.45,0,0,0-.2,5.18c-.34,2.72.58,5.22.5,7.93-.23,7.58-1.5,14.75.84,22.21,1.9,6,5.67,11.72,11.23,15a33.58,33.58,0,0,0,21.19,3.89c6.66-1.19,12.7-5.63,17.65-10.06,5.93-5.3,8.77-12.17,9.5-20,.82-8.79-1.3-17.69,1.48-26.26C161.58,128.6,158.63,125,155.18,125Z"/></g><g id="mic_mesh" data-name="mic mesh"><path class="cls-3" d="M102.88,121.21a3.34,3.34,0,1,1,3.34-3.34A3.35,3.35,0,0,1,102.88,121.21Zm0-5.57a2.23,2.23,0,1,0,2.23,2.23A2.23,2.23,0,0,0,102.88,115.64Z"/><path class="cls-3" d="M102.88,112.86a3.34,3.34,0,1,1,3.34-3.34A3.35,3.35,0,0,1,102.88,112.86Zm0-5.57a2.23,2.23,0,1,0,2.23,2.23A2.23,2.23,0,0,0,102.88,107.29Z"/><path class="cls-3" d="M102.88,122.88a3.32,3.32,0,0,0-2.6,1.27,33.56,33.56,0,0,0,4-1A3.31,3.31,0,0,0,102.88,122.88Z"/><path class="cls-3" d="M111.24,121.21a3.34,3.34,0,1,1,3.34-3.34A3.35,3.35,0,0,1,111.24,121.21Zm0-5.57a2.23,2.23,0,1,0,2.23,2.23A2.23,2.23,0,0,0,111.24,115.64Z"/><path class="cls-3" d="M111.24,112.86a3.34,3.34,0,1,1,3.34-3.34A3.35,3.35,0,0,1,111.24,112.86Zm0-5.57a2.23,2.23,0,1,0,2.23,2.23A2.23,2.23,0,0,0,111.24,107.29Z"/><path class="cls-3" d="M127.63,121.1a3.34,3.34,0,1,1,3.34-3.34A3.35,3.35,0,0,1,127.63,121.1Zm0-5.57a2.23,2.23,0,1,0,2.23,2.23A2.23,2.23,0,0,0,127.63,115.53Z"/><path class="cls-3" d="M127.63,112.75a3.34,3.34,0,1,1,3.34-3.34A3.35,3.35,0,0,1,127.63,112.75Zm0-5.57a2.23,2.23,0,1,0,2.23,2.23A2.23,2.23,0,0,0,127.63,107.18Z"/><path class="cls-3" d="M136,121.1a3.34,3.34,0,1,1,3.34-3.34A3.35,3.35,0,0,1,136,121.1Zm0-5.57a2.23,2.23,0,1,0,2.23,2.23A2.23,2.23,0,0,0,136,115.53Z"/><path class="cls-3" d="M136,112.75a3.34,3.34,0,1,1,3.34-3.34A3.35,3.35,0,0,1,136,112.75Zm0-5.57a2.23,2.23,0,1,0,2.23,2.23A2.23,2.23,0,0,0,136,107.18Z"/><path class="cls-3" d="M119.28,121.1a3.34,3.34,0,1,1,3.34-3.34A3.35,3.35,0,0,1,119.28,121.1Zm0-5.57a2.23,2.23,0,1,0,2.23,2.23A2.23,2.23,0,0,0,119.28,115.53Z"/><path class="cls-3" d="M119.28,112.75a3.34,3.34,0,1,1,3.34-3.34A3.35,3.35,0,0,1,119.28,112.75Zm0-5.57a2.23,2.23,0,1,0,2.23,2.23A2.23,2.23,0,0,0,119.28,107.18Z"/><path class="cls-3" d="M102.46,97.13a3.34,3.34,0,1,1,3.34-3.34A3.35,3.35,0,0,1,102.46,97.13Zm0-5.57a2.23,2.23,0,1,0,2.23,2.23A2.23,2.23,0,0,0,102.46,91.56Z"/><path class="cls-3" d="M102.46,88.77a3.34,3.34,0,1,1,3.34-3.34A3.35,3.35,0,0,1,102.46,88.77Zm0-5.57a2.23,2.23,0,1,0,2.23,2.23A2.23,2.23,0,0,0,102.46,83.2Z"/><path class="cls-3" d="M102.46,105.49a3.34,3.34,0,1,1,3.34-3.34A3.35,3.35,0,0,1,102.46,105.49Zm0-5.57a2.23,2.23,0,1,0,2.23,2.23A2.23,2.23,0,0,0,102.46,99.92Z"/><path class="cls-3" d="M110.82,97.13a3.34,3.34,0,1,1,3.34-3.34A3.35,3.35,0,0,1,110.82,97.13Zm0-5.57A2.23,2.23,0,1,0,113,93.79,2.23,2.23,0,0,0,110.82,91.56Z"/><path class="cls-3" d="M110.82,88.77a3.34,3.34,0,1,1,3.34-3.34A3.35,3.35,0,0,1,110.82,88.77Zm0-5.57A2.23,2.23,0,1,0,113,85.43,2.23,2.23,0,0,0,110.82,83.2Z"/><path class="cls-3" d="M110.82,105.49a3.34,3.34,0,1,1,3.34-3.34A3.35,3.35,0,0,1,110.82,105.49Zm0-5.57a2.23,2.23,0,1,0,2.23,2.23A2.23,2.23,0,0,0,110.82,99.92Z"/><path class="cls-3" d="M127.63,97.13A3.34,3.34,0,1,1,131,93.79,3.35,3.35,0,0,1,127.63,97.13Zm0-5.57a2.23,2.23,0,1,0,2.23,2.23A2.23,2.23,0,0,0,127.63,91.56Z"/><path class="cls-3" d="M127.63,88.77A3.34,3.34,0,1,1,131,85.43,3.35,3.35,0,0,1,127.63,88.77Zm0-5.57a2.23,2.23,0,1,0,2.23,2.23A2.23,2.23,0,0,0,127.63,83.2Z"/><path class="cls-3" d="M127.63,105.49a3.34,3.34,0,1,1,3.34-3.34A3.35,3.35,0,0,1,127.63,105.49Zm0-5.57a2.23,2.23,0,1,0,2.23,2.23A2.23,2.23,0,0,0,127.63,99.92Z"/><path class="cls-3" d="M136,97.13a3.34,3.34,0,1,1,3.34-3.34A3.35,3.35,0,0,1,136,97.13Zm0-5.57a2.23,2.23,0,1,0,2.23,2.23A2.23,2.23,0,0,0,136,91.56Z"/><path class="cls-3" d="M136,88.77a3.34,3.34,0,1,1,3.34-3.34A3.35,3.35,0,0,1,136,88.77Zm0-5.57a2.23,2.23,0,1,0,2.23,2.23A2.23,2.23,0,0,0,136,83.2Z"/><path class="cls-3" d="M136,105.49a3.34,3.34,0,1,1,3.34-3.34A3.35,3.35,0,0,1,136,105.49Zm0-5.57a2.23,2.23,0,1,0,2.23,2.23A2.23,2.23,0,0,0,136,99.92Z"/><path class="cls-3" d="M119.28,97.13a3.34,3.34,0,1,1,3.34-3.34A3.35,3.35,0,0,1,119.28,97.13Zm0-5.57a2.23,2.23,0,1,0,2.23,2.23A2.23,2.23,0,0,0,119.28,91.56Z"/><path class="cls-3" d="M119.28,88.77a3.34,3.34,0,1,1,3.34-3.34A3.35,3.35,0,0,1,119.28,88.77Zm0-5.57a2.23,2.23,0,1,0,2.23,2.23A2.23,2.23,0,0,0,119.28,83.2Z"/><path class="cls-3" d="M119.28,105.49a3.34,3.34,0,1,1,3.34-3.34A3.35,3.35,0,0,1,119.28,105.49Zm0-5.57a2.23,2.23,0,1,0,2.23,2.23A2.23,2.23,0,0,0,119.28,99.92Z"/><path class="cls-3" d="M152.44,121.34a3.34,3.34,0,1,1,3.34-3.34A3.35,3.35,0,0,1,152.44,121.34Zm0-5.57a2.23,2.23,0,1,0,2.23,2.23A2.23,2.23,0,0,0,152.44,115.77Z"/><path class="cls-3" d="M152.44,113a3.34,3.34,0,1,1,3.34-3.34A3.35,3.35,0,0,1,152.44,113Zm0-5.57a2.23,2.23,0,1,0,2.23,2.23A2.23,2.23,0,0,0,152.44,107.42Z"/><path class="cls-3" d="M144.08,121.34a3.34,3.34,0,1,1,3.34-3.34A3.35,3.35,0,0,1,144.08,121.34Zm0-5.57a2.23,2.23,0,1,0,2.23,2.23A2.23,2.23,0,0,0,144.08,115.77Z"/><path class="cls-3" d="M144.08,113a3.34,3.34,0,1,1,3.34-3.34A3.35,3.35,0,0,1,144.08,113Zm0-5.57a2.23,2.23,0,1,0,2.23,2.23A2.23,2.23,0,0,0,144.08,107.42Z"/><path class="cls-3" d="M152.44,97.13a3.34,3.34,0,1,1,3.34-3.34A3.35,3.35,0,0,1,152.44,97.13Zm0-5.57a2.23,2.23,0,1,0,2.23,2.23A2.23,2.23,0,0,0,152.44,91.56Z"/><path class="cls-3" d="M152.44,88.77a3.34,3.34,0,1,1,3.34-3.34A3.35,3.35,0,0,1,152.44,88.77Zm0-5.57a2.23,2.23,0,1,0,2.23,2.23A2.23,2.23,0,0,0,152.44,83.2Z"/><path class="cls-3" d="M152.44,105.49a3.34,3.34,0,1,1,3.34-3.34A3.35,3.35,0,0,1,152.44,105.49Zm0-5.57a2.23,2.23,0,1,0,2.23,2.23A2.23,2.23,0,0,0,152.44,99.92Z"/><path class="cls-3" d="M144.08,97.13a3.34,3.34,0,1,1,3.34-3.34A3.35,3.35,0,0,1,144.08,97.13Zm0-5.57a2.23,2.23,0,1,0,2.23,2.23A2.23,2.23,0,0,0,144.08,91.56Z"/><path class="cls-3" d="M144.08,88.77a3.34,3.34,0,1,1,3.34-3.34A3.35,3.35,0,0,1,144.08,88.77Zm0-5.57a2.23,2.23,0,1,0,2.23,2.23A2.23,2.23,0,0,0,144.08,83.2Z"/><path class="cls-3" d="M144.08,105.49a3.34,3.34,0,1,1,3.34-3.34A3.35,3.35,0,0,1,144.08,105.49Zm0-5.57a2.23,2.23,0,1,0,2.23,2.23A2.23,2.23,0,0,0,144.08,99.92Z"/><path class="cls-3" d="M105,69.33a2.13,2.13,0,0,1,.06.37,2.23,2.23,0,0,1-2.23,2.23,2.17,2.17,0,0,1-.43-.06c-.28.3-.57.59-.85.9a3.18,3.18,0,0,0,1.27.27,3.35,3.35,0,0,0,3.34-3.34,3.26,3.26,0,0,0-.22-1.17C105.68,68.79,105.36,69.05,105,69.33Z"/><path class="cls-3" d="M99.67,79a3.35,3.35,0,1,0,1.51-3.75,6.5,6.5,0,0,1-1.06,3.07Zm3.21-3.12a2.23,2.23,0,1,1-2.23,2.23A2.23,2.23,0,0,1,102.88,75.83Z"/><path class="cls-3" d="M111.24,73a3.34,3.34,0,1,1,3.34-3.34A3.35,3.35,0,0,1,111.24,73Zm0-5.57a2.23,2.23,0,1,0,2.23,2.23A2.23,2.23,0,0,0,111.24,67.48Z"/><path class="cls-3" d="M111.24,81.4a3.34,3.34,0,1,1,3.34-3.34A3.35,3.35,0,0,1,111.24,81.4Zm0-5.57a2.23,2.23,0,1,0,2.23,2.23A2.23,2.23,0,0,0,111.24,75.83Z"/><path class="cls-3" d="M127.63,73A3.34,3.34,0,1,1,131,69.7,3.35,3.35,0,0,1,127.63,73Zm0-5.57a2.23,2.23,0,1,0,2.23,2.23A2.23,2.23,0,0,0,127.63,67.48Z"/><path class="cls-3" d="M129.84,61.54a2.21,2.21,0,0,1-4.18.82l-1,.16-.13,0A3.34,3.34,0,0,0,131,61.35h0Z"/><path class="cls-3" d="M127.63,81.4A3.34,3.34,0,1,1,131,78.06,3.35,3.35,0,0,1,127.63,81.4Zm0-5.57a2.23,2.23,0,1,0,2.23,2.23A2.23,2.23,0,0,0,127.63,75.83Z"/><path class="cls-3" d="M136,73a3.34,3.34,0,1,1,3.34-3.34A3.35,3.35,0,0,1,136,73Zm0-5.57a2.23,2.23,0,1,0,2.23,2.23A2.23,2.23,0,0,0,136,67.48Z"/><path class="cls-3" d="M138.2,61.56a2.22,2.22,0,0,1-4.44-.21,2.2,2.2,0,0,1,0-.33c-.37,0-.75,0-1.12.09,0,.08,0,.16,0,.25a3.34,3.34,0,0,0,6.61.69A9.22,9.22,0,0,0,138.2,61.56Z"/><path class="cls-3" d="M136,81.4a3.34,3.34,0,1,1,3.34-3.34A3.35,3.35,0,0,1,136,81.4Zm0-5.57a2.23,2.23,0,1,0,2.23,2.23A2.23,2.23,0,0,0,136,75.83Z"/><path class="cls-3" d="M119.28,73a3.34,3.34,0,1,1,3.34-3.34A3.35,3.35,0,0,1,119.28,73Zm0-5.57a2.23,2.23,0,1,0,2.23,2.23A2.23,2.23,0,0,0,119.28,67.48Z"/><path class="cls-3" d="M120.64,63.1a2.13,2.13,0,0,1-2,.36l-1.59.32a3.31,3.31,0,0,0,5.24-.93Z"/><path class="cls-3" d="M119.28,81.4a3.34,3.34,0,1,1,3.34-3.34A3.35,3.35,0,0,1,119.28,81.4Zm0-5.57a2.23,2.23,0,1,0,2.23,2.23A2.23,2.23,0,0,0,119.28,75.83Z"/><path class="cls-3" d="M154.62,78.53a2.23,2.23,0,1,1-2.5-2.66l-.78-.95a3.34,3.34,0,1,0,4.19,4.41Q155.06,78.94,154.62,78.53Z"/><path class="cls-3" d="M146.14,68.31c-.52-.6-1.08-1.25-1.68-1.9a3.28,3.28,0,0,0-.38,0,3.34,3.34,0,1,0,3.33,3.49C147,69.33,146.58,68.82,146.14,68.31Zm-2.05,3.63a2.23,2.23,0,1,1,2.23-2.23A2.23,2.23,0,0,1,144.08,71.93Z"/><path class="cls-3" d="M144.08,81.4a3.34,3.34,0,1,1,3.34-3.34A3.35,3.35,0,0,1,144.08,81.4Zm0-5.57a2.23,2.23,0,1,0,2.23,2.23A2.23,2.23,0,0,0,144.08,75.83Z"/></g><g id="Microphone"><path class="cls-3" d="M127.89,194.87a36.67,36.67,0,0,0,36.63-36.63V93.1a36.63,36.63,0,0,0-73.26,0v65.15A36.67,36.67,0,0,0,127.89,194.87Zm0-130.29A28.55,28.55,0,0,1,156.41,93.1v28.52h-57V93.1A28.55,28.55,0,0,1,127.89,64.58ZM99.38,129.73h57v28.52a28.52,28.52,0,0,1-57,0Z"/><path class="cls-3" d="M178.15,160.14V125.67a4.06,4.06,0,0,0-8.11,0v34.47a42.14,42.14,0,0,1-84.28,0V125.67a4.06,4.06,0,1,0-8.11,0v34.47a50.31,50.31,0,0,0,46.2,50.08v8.54H95.32a4.06,4.06,0,0,0,0,8.11h65.15a4.06,4.06,0,0,0,0-8.11H132v-8.54A50.31,50.31,0,0,0,178.15,160.14Z"/></g><g id="Headphones"><path class="cls-4" d="M120.65,0C76.21,4.39,41.13,50.24,41.13,106v73c0,4.74,3.13,8.59,7,8.59s7-3.85,7-8.59V106c0-49.19,32.54-89.21,72.54-89.21s72.53,40,72.53,89.21v73c0,4.74,3.13,8.59,7,8.59s7-3.85,7-8.59V106c0-55.77-35.08-101.62-79.52-106"/><path class="cls-4" d="M37,183.14C17.7,186.58,1,162.76,0,135.91c-1-28,15.19-52.54,35.59-51"/><line class="cls-5" x1="27.92" y1="89.9" x2="27.92" y2="178.62"/><path class="cls-4" d="M218.23,85.26c19.34-3.44,36,20.38,37,47.23,1,28-15.19,52.54-35.59,51"/><line class="cls-5" x1="227.35" y1="178.5" x2="227.35" y2="89.78"/></g></svg>